<svg width="72" height="72" viewBox="0 0 72 72" fill="none" xmlns="http://www.w3.org/2000/svg">
<path d="M68 36C68 53.6731 53.6731 68 36 68C18.3269 68 4 53.6731 4 36C4 18.3269 18.3269 4 36 4C53.6731 4 68 18.3269 68 36Z" fill="url(#paint0_radial_1_796)"/>
<path fill-rule="evenodd" clip-rule="evenodd" d="M34.8689 0.0174701C35.2446 0.00584912 35.6217 0 36 0C36.3783 0 36.7554 0.00584912 37.1311 0.0174701L36.8838 8.01365C36.5905 8.00457 36.2958 8 36 8C35.7042 8 35.4095 8.00457 35.1162 8.01365L34.8689 0.0174701ZM46.0456 1.42134C46.7728 1.63229 47.4906 1.86553 48.198 2.12028L45.4877 9.64716C44.9385 9.44941 44.3814 9.26837 43.8169 9.10464L46.0456 1.42134ZM23.802 2.12028C24.5094 1.86553 25.2271 1.63229 25.9544 1.42135L28.1831 9.10464C27.6186 9.26837 27.0615 9.44941 26.5123 9.64716L23.802 2.12028ZM56.2393 6.22421C56.8631 6.64897 57.4728 7.09277 58.0675 7.55476L53.1599 13.8726C52.6968 13.5129 52.2222 13.1674 51.7367 12.8369L56.2393 6.22421ZM13.9325 7.55477C14.5272 7.09277 15.1369 6.64897 15.7607 6.22421L20.2633 12.8369C19.7778 13.1674 19.3032 13.5129 18.8401 13.8726L13.9325 7.55477ZM64.4452 13.9325C64.9072 14.5272 65.351 15.1369 65.7758 15.7607L59.1631 20.2633C58.8326 19.7778 58.4871 19.3032 58.1274 18.8401L64.4452 13.9325ZM6.22421 15.7607C6.64897 15.1369 7.09277 14.5272 7.55476 13.9325L13.8726 18.8401C13.5129 19.3032 13.1674 19.7778 12.8369 20.2633L6.22421 15.7607ZM69.8797 23.802C70.1345 24.5094 70.3677 25.2271 70.5787 25.9544L62.8954 28.1831C62.7316 27.6186 62.5506 27.0615 62.3528 26.5123L69.8797 23.802ZM1.42134 25.9544C1.63229 25.2272 1.86553 24.5094 2.12028 23.802L9.64716 26.5123C9.44941 27.0615 9.26837 27.6186 9.10464 28.1831L1.42134 25.9544ZM71.9825 34.8689C71.9941 35.2446 72 35.6217 72 36C72 36.3783 71.9941 36.7554 71.9825 37.1311L63.9864 36.8838C63.9954 36.5905 64 36.2958 64 36C64 35.7042 63.9954 35.4095 63.9864 35.1162L71.9825 34.8689ZM0 36C0 35.6217 0.00584912 35.2446 0.0174701 34.8689L8.01365 35.1162C8.00457 35.4095 8 35.7042 8 36C8 36.2958 8.00457 36.5905 8.01365 36.8838L0.0174701 37.1311C0.00584912 36.7554 0 36.3783 0 36ZM70.5787 46.0456C70.3677 46.7728 70.1345 47.4906 69.8797 48.198L62.3528 45.4877C62.5506 44.9385 62.7316 44.3814 62.8954 43.8169L70.5787 46.0456ZM2.12028 48.198C1.86553 47.4906 1.63229 46.7729 1.42135 46.0456L9.10464 43.8169C9.26837 44.3814 9.44941 44.9385 9.64716 45.4877L2.12028 48.198ZM65.7758 56.2393C65.351 56.8631 64.9072 57.4728 64.4452 58.0675L58.1274 53.1599C58.4871 52.6968 58.8326 52.2222 59.1631 51.7367L65.7758 56.2393ZM7.55477 58.0675C7.09277 57.4728 6.64897 56.8631 6.22421 56.2393L12.8369 51.7367C13.1674 52.2222 13.5129 52.6968 13.8726 53.1599L7.55477 58.0675ZM58.0675 64.4452C57.4728 64.9072 56.8631 65.351 56.2393 65.7758L51.7367 59.1631C52.2222 58.8326 52.6968 58.4871 53.1599 58.1274L58.0675 64.4452ZM15.7607 65.7758C15.1369 65.351 14.5272 64.9072 13.9325 64.4452L18.8401 58.1274C19.3032 58.4871 19.7778 58.8326 20.2633 59.1631L15.7607 65.7758ZM48.198 69.8797C47.4906 70.1345 46.7729 70.3677 46.0456 70.5787L43.8169 62.8954C44.3814 62.7316 44.9385 62.5506 45.4877 62.3528L48.198 69.8797ZM25.9544 70.5787C25.2272 70.3677 24.5094 70.1345 23.802 69.8797L26.5123 62.3528C27.0615 62.5506 27.6186 62.7316 28.1831 62.8954L25.9544 70.5787ZM36 72C35.6217 72 35.2446 71.9941 34.8689 71.9825L35.1162 63.9864C35.4095 63.9954 35.7042 64 36 64C36.2958 64 36.5905 63.9954 36.8838 63.9864L37.1311 71.9825C36.7554 71.9941 36.3783 72 36 72Z" fill="black" fill-opacity="0.16"/>
<defs>
<radialGradient id="paint0_radial_1_796" cx="0" cy="0" r="1" gradientUnits="userSpaceOnUse" gradientTransform="translate(36 36) rotate(90) scale(32)">
<stop stop-color="#36F460"/>
<stop offset="1" stop-color="#36F460" stop-opacity="0"/>
</radialGradient>
</defs>
</svg>
